<?xml version="1.0" encoding="UTF-8" standalone="no"?>
<!-- Created with Inkscape (http://www.inkscape.org/) -->

<svg
   xmlns:dc="http://purl.org/dc/elements/1.1/"
   xmlns:cc="http://creativecommons.org/ns#"
   xmlns:rdf="http://www.w3.org/1999/02/22-rdf-syntax-ns#"
   xmlns:svg="http://www.w3.org/2000/svg"
   xmlns="http://www.w3.org/2000/svg"
   xmlns:sodipodi="http://sodipodi.sourceforge.net/DTD/sodipodi-0.dtd"
   xmlns:inkscape="http://www.inkscape.org/namespaces/inkscape"
   width="10.58333mm"
   height="8.4666624mm"
   viewBox="0 0 10.58333 8.4666624"
   version="1.1"
   id="svg2086"
   inkscape:version="0.92.2 (unknown)"
   sodipodi:docname="twitter.svg">
  <defs
     id="defs2080" />
  <sodipodi:namedview
     id="base"
     pagecolor="#ffffff"
     bordercolor="#666666"
     borderopacity="1.0"
     inkscape:pageopacity="0.0"
     inkscape:pageshadow="2"
     inkscape:zoom="1.4"
     inkscape:cx="172.81148"
     inkscape:cy="-75.544015"
     inkscape:document-units="mm"
     inkscape:current-layer="layer1"
     showgrid="false"
     fit-margin-top="0"
     fit-margin-left="0"
     fit-margin-right="0"
     fit-margin-bottom="0"
     inkscape:window-width="1920"
     inkscape:window-height="1053"
     inkscape:window-x="0"
     inkscape:window-y="0"
     inkscape:window-maximized="1" />
  <metadata
     id="metadata2083">
    <rdf:RDF>
      <cc:Work
         rdf:about="">
        <dc:format>image/svg+xml</dc:format>
        <dc:type
           rdf:resource="http://purl.org/dc/dcmitype/StillImage" />
        <dc:title></dc:title>
      </cc:Work>
    </rdf:RDF>
  </metadata>
  <g
     inkscape:label="Layer 1"
     inkscape:groupmode="layer"
     id="layer1"
     transform="translate(192.76785,14.905952)">
    <path
       d="m -182.18452,-13.847619 c -0.38947,0.170744 -0.80786,0.228953 -1.24672,0.280106 0.38664,-0.291042 0.58526,-0.390173 0.89394,-0.985661 -0.4191,0.244475 -0.82409,0.226836 -1.31798,0.322438 -0.39652,-0.415572 -0.96132,-0.675216 -1.58503,-0.675216 -1.19909,0 -2.17205,0.957086 -2.17205,2.13748 0,0.167217 0.0194,0.330553 0.0568,0.487186 -1.80445,-0.08925 -3.43605,-0.978958 -4.50673,-2.271888 -0.18627,0.315736 -0.26282,0.721077 -0.26282,1.113366 0,0.741186 0.38382,1.395236 0.96661,1.779058 -0.35631,-0.01094 -0.69144,-0.107597 -0.9839,-0.267758 v 0.02716 c 0,1.035403 0.74824,1.899003 1.74202,2.0958529 -0.18274,0.049036 -0.3743,0.075142 -0.57256,0.075142 -0.14005,0 -0.27587,-0.013406 -0.40852,-0.038806 0.27623,0.849136 1.03894,1.5486943 1.98861,1.5659806 -0.92604,1.047397 -3.00496,0.7246054 -3.175,0.7055554 0.96168,0.6060723 2.10291,1.0583333 3.32881,1.0583333 3.99345,0 6.1775,-3.2564914 6.1775,-6.0811832 0,-0.09243 -0.002,-0.185208 -0.006,-0.276225 0.42368,-0.301272 0.79198,-0.621594 1.08302,-1.050925"
       style="fill:#ffffff;fill-opacity:1;fill-rule:nonzero;stroke:none;stroke-width:0.35277775"
       id="path104"
       inkscape:connector-curvature="0" />
  </g>
</svg>
